<svg width="392" height="93" viewBox="0 0 392 93" fill="none" xmlns="http://www.w3.org/2000/svg">
<g clip-path="url(#clip0_358_7810)" filter="url(#filter0_d_358_7810)">
<path d="M380.575 30.7769L387.508 15.9337L383.667 0H119.734L118.493 11.6322L116.057 0H54.5473L52.4392 10.9658H47.3329L46.1149 17.0242L39.3222 0H19.2719L4 63.4016L16.1801 85H36.2069L38.6663 73.0346H46.7473L52.1581 85H113.949L115.424 71.0959L118.844 85H325.296L333.658 62.614H341.224L348.251 44.8325L355.746 85H376.523L388.023 63.3713L380.575 30.7769ZM202.207 45.8321L202.231 38.2591H219.985L220.173 45.8321H202.207Z" fill="black"/>
<path d="M17.9137 80.6076L7.77148 62.614H24.1443L33.4199 80.6076H17.9137Z" fill="#3D3938"/>
<path d="M84.1541 62.614H67.7812L74.7848 80.6076H90.2909L84.1541 62.614Z" fill="#3D3938"/>
<path d="M89.6113 62.614L95.4671 80.6076H110.973L105.984 62.614H89.6113Z" fill="#3D3938"/>
<path d="M138.73 62.614L142.01 80.6076H178.199L176.91 62.614H138.73Z" fill="#3D3938"/>
<path d="M220.57 62.614L219.563 80.6076H183.374L182.367 62.614H220.57Z" fill="#3D3938"/>
<path d="M226.029 62.614H242.401L240.246 80.6076H224.74L226.029 62.614Z" fill="#3D3938"/>
<path d="M247.86 62.614L245.424 80.6076H260.93L264.233 62.614H247.86Z" fill="#3D3938"/>
<path d="M269.689 62.614L266.105 80.6076H281.612L286.039 62.614H269.689Z" fill="#3D3938"/>
<path d="M291.497 62.614L286.789 80.6076H302.295L307.87 62.614H291.497Z" fill="#3D3938"/>
<path d="M313.327 62.614L307.471 80.6076H322.977L329.699 62.614H313.327Z" fill="#3D3938"/>
<path d="M367.903 62.614L359.189 80.6076H374.696L384.276 62.614H367.903Z" fill="#3D3938"/>
<path d="M116.9 62.614L121.327 80.6076H136.834L133.273 62.614H116.9Z" fill="#3D3938"/>
<path d="M45.9512 62.614H62.324L69.6086 80.6076H54.1024L45.9512 62.614Z" fill="#3D3938"/>
<path d="M50.6594 38.259H45.3657L42.9766 50.2245H32.2253L34.7784 38.259H29.4848L24.1443 62.614H7.77148L21.7786 4.42261H36.9568L34.5442 15.3884H39.6739L37.2613 26.6571H47.6846L49.9333 15.3884H55.0629L57.171 4.42261H72.3961L62.3241 62.614H45.9513L50.6594 38.259Z" fill="#D0C5C0"/>
<path d="M77.455 4.42261H92.6333L84.1306 62.614H67.7578L77.455 4.42261Z" fill="#D0C5C0"/>
<path d="M143.275 4.42261H178.714L178.386 15.3884H157.844L157.188 26.6571H178.035L177.683 38.2893H156.485L155.806 50.2547H177.285L176.91 62.614H138.73L143.275 4.42261Z" fill="#D0C5C0"/>
<path d="M183.749 4.42261H219.188L219.446 15.3884H198.904L198.787 50.2547H220.266L220.57 62.614H182.367L183.749 4.42261Z" fill="#D0C5C0"/>
<path d="M246.453 38.259H241.16L242.401 62.614H226.028L224.248 4.42261H259.687L261.421 26.6571H256.197L256.619 32.4126H261.866L264.231 62.614H247.859L246.453 38.259ZM239.988 15.3581L240.574 26.6268H245.797L245.142 15.3581H239.988Z" fill="#D0C5C0"/>
<path d="M305.246 4.42261H340.685L342.723 15.3884H322.181L323.985 26.6571H344.831L347.01 38.2893H325.835L329.723 62.6443H313.351L305.246 4.42261Z" fill="#D0C5C0"/>
<path d="M358.112 15.3581H347.852L345.744 4.39233H381.183L383.83 15.3581H373.547L384.299 62.614H367.926L358.112 15.3581Z" fill="#D0C5C0"/>
<path d="M118.82 44.1963H113.48L114.791 32.4126H109.544L105.961 62.614H89.5879L97.6923 4.42261H112.871L111.559 15.3884H116.689L115.424 26.6571H120.647L122.989 4.42261H138.168L133.225 62.614H116.899L118.82 44.1963Z" fill="#D0C5C0"/>
<path d="M300.164 4.42261H264.725L269.667 62.614H286.04L284.096 44.1963H289.436L291.497 62.614H307.87L300.164 4.42261ZM288.242 25.6878H290.841L292.083 36.29H288.569L288.124 32.4126H282.878L283.276 36.3203H279.762L278.685 25.718H281.285L280.98 22.8706H274.937L274.211 15.3884H281.051L281.73 21.9315H286.906L286.18 15.3884H293.02L293.933 22.8706H287.89L288.242 25.6878Z" fill="#D0C5C0"/>
</g>
<defs>
<filter id="filter0_d_358_7810" x="0" y="0" width="392" height="93" filterUnits="userSpaceOnUse" color-interpolation-filters="sRGB">
<feFlood flood-opacity="0" result="BackgroundImageFix"/>
<feColorMatrix in="SourceAlpha" type="matrix" values="0 0 0 0 0 0 0 0 0 0 0 0 0 0 0 0 0 0 127 0" result="hardAlpha"/>
<feOffset dy="4"/>
<feGaussianBlur stdDeviation="2"/>
<feComposite in2="hardAlpha" operator="out"/>
<feColorMatrix type="matrix" values="0 0 0 0 0 0 0 0 0 0 0 0 0 0 0 0 0 0 0.25 0"/>
<feBlend mode="normal" in2="BackgroundImageFix" result="effect1_dropShadow_358_7810"/>
<feBlend mode="normal" in="SourceGraphic" in2="effect1_dropShadow_358_7810" result="shape"/>
</filter>
<clipPath id="clip0_358_7810">
<rect width="384" height="85" fill="white" transform="translate(4)"/>
</clipPath>
</defs>
</svg>
