<svg width="420" height="411" viewBox="0 0 420 411" fill="none" xmlns="http://www.w3.org/2000/svg">
<path d="M302.473 201.56C302.473 201.56 301.817 204.472 301.817 204.957C301.817 205.442 284.623 203.503 284.623 203.503L285.279 198.163L302.473 201.56Z" fill="#904A04"/>
<path d="M299.517 200.26C299.517 200.26 255.853 187.487 237.009 190.884C218.165 194.281 230.374 204.232 230.374 204.232L299.517 200.26Z" fill="#904A04"/>
<path d="M126.398 202.045C126.398 202.045 127.055 204.957 127.055 205.442C127.055 205.927 144.245 203.988 144.245 203.988L143.589 198.648L126.398 202.045Z" fill="#904A04"/>
<path d="M129.354 200.748C129.354 200.748 173.017 187.971 191.861 191.372C210.706 194.772 198.496 204.72 198.496 204.72L129.354 200.748Z" fill="#904A04"/>
<path d="M217.156 271.446C261.254 271.446 297.002 253.629 297.002 231.65C297.002 209.671 261.254 191.853 217.156 191.853C173.059 191.853 137.311 209.671 137.311 231.65C137.311 253.629 173.059 271.446 217.156 271.446Z" fill="#B26734"/>
<path d="M193.351 193.796L149.211 200.59L120.75 204.858L113.078 212.564V226.214L114.532 243.199L138.593 251.692L157.326 252.906C151.836 198.282 193.351 193.796 193.351 193.796Z" fill="#B26734"/>
<path d="M171.416 236.99C171.416 236.99 162.491 223.401 139.181 230.68C115.871 237.959 152.076 244.269 152.076 244.269L171.416 236.99Z" fill="#6D3C0F"/>
<path d="M104.578 347.481C104.578 347.481 120 330.675 155.024 327.965C168.746 326.905 165.524 358.398 165.524 358.398L188.9 337.974L234.611 341.615L253.133 354.963C253.133 354.963 264.975 326.27 287.557 326.864C310.139 327.458 323.772 344.986 323.772 344.986L295.084 256.364H129.03L104.578 347.481Z" fill="#6D3C0F"/>
<path d="M256.138 277.595C246.868 314.967 244.532 353.373 215.165 353.373C185.86 353.373 183.796 318.984 175.731 280.549C168.361 245.422 191.605 221.979 215.165 221.979C222.735 222.037 230.157 224.044 236.683 227.8C251.531 236.274 262.077 253.664 256.138 277.595Z" fill="#B26734"/>
<path d="M244.43 287.674C244.43 314.694 225.173 344.742 210.706 338.584C195.513 332.11 187.471 312.896 184.456 284.897C181.578 258.179 198.965 238.377 214.079 238.377C229.192 238.377 244.43 260.651 244.43 287.674Z" fill="#BD6E35"/>
<path d="M235.52 193.298L279.659 200.106L308.111 204.357L315.782 212.063V225.713L314.345 242.689L290.284 251.182L271.551 252.396C277.034 197.794 235.52 193.298 235.52 193.298Z" fill="#B26734"/>
<path d="M184.918 195.251L202.145 231.65L219.515 249.49L233.625 230.224L249.887 195.251L226.262 191.369L203.26 193.035L184.918 195.251Z" fill="#A56032"/>
<path d="M253.697 251.525C253.697 251.525 258.229 274.358 249.3 277.271C240.372 280.183 231.943 258.342 231.943 258.342H213.098L212.6 246.696L243.348 240.872L253.697 251.525Z" fill="#3A3A3A"/>
<path d="M177.545 251.525C177.545 251.525 173.017 274.358 181.942 277.271C190.867 280.183 199.3 258.342 199.3 258.342H218.147L218.643 246.696L187.894 240.872L177.545 251.525Z" fill="#3A3A3A"/>
<path d="M186.408 255.915L190.871 253.006L192.856 250.578H238.482L239.968 253.006L243.935 254.945L240.959 241.357L210.709 239.417L190.375 241.357L186.408 255.915Z" fill="#444444"/>
<path d="M253.47 244.066C253.47 244.066 255.948 254.499 248.509 256.673C241.071 258.846 238.58 243.797 238.58 243.797L244.047 242.326L253.47 244.066Z" fill="#515151"/>
<path d="M177.481 244.066C177.481 244.066 175 254.499 182.439 256.673C189.878 258.846 192.368 243.797 192.368 243.797L186.902 242.326L177.481 244.066Z" fill="#515151"/>
<path d="M225.156 235.047H245.425L253.854 244.269L244.929 244.754L234.016 243.299L225.586 244.269L225.156 235.047Z" fill="#303030"/>
<path d="M206.243 235.047H185.974L177.545 244.269L186.473 244.754L197.383 243.299L205.813 244.269L206.243 235.047Z" fill="#303030"/>
<path d="M225.587 244.269H205.254L200.791 235.047H231.044L225.587 244.269Z" fill="#515151"/>
<path d="M225.092 239.899C225.913 239.899 226.578 239.247 226.578 238.444C226.578 237.641 225.913 236.99 225.092 236.99C224.271 236.99 223.605 237.641 223.605 238.444C223.605 239.247 224.271 239.899 225.092 239.899Z" fill="#AAAAAA"/>
<path d="M217.817 241.356H213.516C213.334 241.356 213.188 241.5 213.188 241.678V242.005C213.188 242.182 213.334 242.326 213.516 242.326H217.817C217.999 242.326 218.145 242.182 218.145 242.005V241.678C218.145 241.5 217.999 241.356 217.817 241.356Z" fill="#AAAAAA"/>
<path d="M183.605 254.659C185.142 251.891 186.143 248.869 186.559 245.746C186.598 245.425 186.102 245.425 186.063 245.746C185.66 248.784 184.687 251.723 183.192 254.415C183.041 254.688 183.468 254.936 183.622 254.659H183.605Z" fill="#3A3A3A"/>
<path d="M247.508 254.415C246.015 251.723 245.042 248.784 244.641 245.746C244.598 245.425 244.103 245.425 244.145 245.746C244.558 248.87 245.559 251.892 247.098 254.659C247.249 254.936 247.676 254.691 247.525 254.415H247.508Z" fill="#3A3A3A"/>
<path d="M197.801 239.459C154.406 280.71 145.16 361.619 145.16 361.619C145.16 361.619 136.789 324.995 128.426 323.63C117.269 321.81 104.817 346.023 104.817 346.023C104.817 346.023 116.078 300.929 112.036 285.057C108.239 270.098 87.5575 247.319 99.9541 219.416C99.9541 219.416 110.973 201.756 138.817 199.187C138.817 199.187 53.1438 224.701 195.521 238.252H200.272L197.801 239.459Z" fill="#A4571F"/>
<path d="M186.235 244.632C151.71 277.451 144.846 344.912 144.846 344.912C144.846 344.912 136.99 315.773 130.333 314.688C121.457 313.24 110.95 332.271 110.95 332.271C110.95 332.271 122.828 295.833 117.303 283.998C101.188 249.49 100.198 240.14 101.697 231.059C101.697 231.059 101.723 214.507 118.002 207.343C118.002 207.343 71.1782 232.029 184.457 242.811H188.194L186.235 244.632Z" fill="#904A04"/>
<path d="M260.428 236.505C260.428 236.505 269.356 222.916 292.666 230.195C315.976 237.474 279.771 243.784 279.771 243.784L260.428 236.505Z" fill="#6D3C0F"/>
<path d="M231.07 238.971C274.465 280.225 283.712 361.134 283.712 361.134C283.712 361.134 292.082 324.507 300.446 323.142C311.602 321.325 324.071 345.539 324.071 345.539C324.071 345.539 312.81 300.444 316.852 284.573C320.649 269.613 341.33 246.834 328.934 218.928C328.934 218.928 317.915 201.268 290.071 198.699C290.071 198.699 375.744 224.213 233.367 237.763H228.59L231.07 238.971Z" fill="#A4571F"/>
<path d="M242.637 244.147C277.162 276.966 284.026 344.428 284.026 344.428C284.026 344.428 291.878 315.288 298.536 314.2C307.415 312.752 317.922 331.786 317.922 331.786C317.922 331.786 306.04 295.348 311.566 283.526C327.683 249.002 328.674 239.667 327.175 230.587C327.175 230.587 327.149 214.035 310.87 206.871C310.87 206.871 357.694 231.557 244.412 242.336H240.678L242.637 244.147Z" fill="#904A04"/>
<path d="M159.797 198.757C159.797 198.757 166.986 212.243 194.906 212.243C196.219 212.243 191.989 210.188 191.989 210.188C191.989 210.188 173.972 211.196 162.658 198.519C161.438 197.151 159.797 198.757 159.797 198.757Z" fill="#A56032"/>
<path d="M125.568 231.004V243.476L131.757 232.835L125.568 231.004Z" fill="#A4571F"/>
<path d="M121.699 228.352V237.368L126.175 229.672L121.699 228.352Z" fill="#A4571F"/>
<path d="M303.304 230.52V242.991L297.115 232.35L303.304 230.52Z" fill="#A4571F"/>
<path d="M307.168 227.864V236.884L302.695 229.187L307.168 227.864Z" fill="#A4571F"/>
<path d="M186.038 190.82L184.811 195.109L195.334 195.251L195.829 191.369L186.038 190.82Z" fill="#824009"/>
<path d="M250.199 190.518L249.838 195.331L240.848 193.629L241.458 189.914L250.199 190.518Z" fill="#824009"/>
<path d="M201.171 356.093C197.01 368.041 194.077 376.45 187.459 376.45C180.84 376.45 173.973 364.647 173.973 352.025C173.973 339.402 179.99 323.161 186.612 323.161C193.234 323.161 205.82 342.739 201.171 356.093Z" fill="#B26734"/>
<path d="M194.476 381.495L180.705 380.268L184.288 370.102L193.335 369.743L194.476 381.495Z" fill="#B26734"/>
<path d="M181.1 379.147L194.415 380.875L200.456 395.587C185.654 379.738 170.855 393.314 170.855 393.314L181.1 379.147Z" fill="#A4571F"/>
<path d="M181.86 385.9C181.86 385.9 177.368 392.383 178.907 395.587L183.865 390.745L189.712 385.9H181.86Z" fill="#A4571F"/>
<path d="M229.31 353.81C232.978 365.909 234.504 374.71 241.122 374.71C247.741 374.71 254.608 362.907 254.608 350.284C254.608 337.662 248.587 321.415 241.969 321.415C235.351 321.415 225.281 340.517 229.31 353.81Z" fill="#B26734"/>
<path d="M234.105 379.764L247.874 378.537L244.29 368.372L235.247 368.012L234.105 379.764Z" fill="#B26734"/>
<path d="M247.48 377.417L234.164 379.144L228.127 393.857C242.925 378.008 257.727 391.58 257.727 391.58L247.48 377.417Z" fill="#A4571F"/>
<path d="M245.601 384.404C245.601 384.404 250.097 390.887 248.555 394.091L243.593 389.246L237.746 384.404H245.601Z" fill="#A4571F"/>
<path d="M199.261 211.103H188.929C187.811 211.103 186.904 211.99 186.904 213.084V215.431C186.904 216.526 187.811 217.413 188.929 217.413H199.261C200.38 217.413 201.286 216.526 201.286 215.431V213.084C201.286 211.99 200.38 211.103 199.261 211.103Z" fill="#3F3F3F"/>
<path d="M262.743 95.0726C262.743 95.0726 262.743 91.7012 255.727 90.6897C252.866 90.2755 236.329 90.4649 236.329 90.4649L231.184 79.3551C231.184 79.3551 253.995 79.612 261.181 83.0445C268.367 86.477 266.765 91.8328 266.109 97.3235" fill="#303030"/>
<path d="M159.278 101.658C159.278 101.658 158.822 98.3157 165.654 96.4212C168.436 95.6506 184.859 93.7401 184.859 93.7401L191.566 81.8789C191.566 81.8789 165.903 85.2215 159.233 89.5338C152.562 93.8461 154.868 98.9482 156.24 104.304" fill="#303030"/>
<path d="M184.004 182.243C183.577 183.527 185.448 185.505 186.14 186.356C191.59 193.051 195.859 200.574 200.663 207.725C202.756 210.843 216.062 229.967 220.14 225.722C227.083 218.498 232.199 209.587 237.203 200.998C242.453 191.982 247.112 182.567 250.036 172.565C250.156 172.233 250.207 171.88 250.187 171.528C249.859 168.828 237.954 168.606 235.7 168.269L228.868 167.242C228.252 167.148 226.677 166.599 226.07 166.821L194.127 178.428L187.791 180.731C186.924 181.052 184.565 181.183 184.096 182.05C184.059 182.112 184.029 182.176 184.004 182.243Z" fill="#B26734"/>
<path d="M188.627 184.622L207.497 213.694L212.131 217.692L217.951 222.669L223.726 216.953L240.238 191.584L248.841 171.49L224.855 168.247L188.627 184.622Z" fill="#A4571F"/>
<path d="M236.663 193.16L196.494 191.221L206.909 212.089L210.876 215.971L216.329 220.338L219.801 217.425L222.281 215.001L224.762 211.604" fill="#CB63D3"/>
<path d="M207.9 206.585L211.372 212.41L215.834 216.777L232.638 202.218L213.357 200.276L207.9 206.585Z" fill="#B25F8C"/>
<path d="M220.399 15.8748C218.876 16.0771 217.209 17.8752 216.461 18.7647C205.863 31.3997 199.422 46.8315 193.853 62.2408C190.831 70.6213 188.016 79.0853 184.735 87.392C181.552 95.4964 177.119 103.126 174.287 111.288C171.082 120.529 169.927 130.409 170.478 140.141C171.272 154.167 173.296 171.573 183.678 182.246C199.632 198.645 211.011 210.294 211.011 210.294L217.793 215.534L224.727 209.433C224.727 209.433 243.24 193.35 245.251 186.234C247.262 179.119 247.364 179.639 249.067 175.882C250.77 172.125 253.536 171.875 255.63 161.407C260.686 136.211 251.61 110.565 242.642 87.1512C237.57 73.8997 232.178 60.7091 228.743 46.9631C227.263 41.0325 226.154 35.0248 224.911 29.0429C224.287 26.0567 223.637 23.0737 222.893 20.1133C222.63 19.0761 222.525 16.5298 221.383 16.0097C221.075 15.8737 220.733 15.8269 220.399 15.8748Z" fill="#BD6E35"/>
<path d="M221.729 16.2473C222.903 17.7468 221.118 18.8963 221.289 20.7073C221.497 22.8971 221.733 25.0848 221.998 27.2704C222.549 31.7786 223.225 36.2685 224.026 40.7403C225.604 49.5467 227.668 58.2632 230.207 66.8516C237.226 90.574 247.956 113.76 248.582 138.456C249.239 163.633 239.129 188.129 225.026 209.199C240.12 196.525 251.181 182.343 255.952 160.158C258.607 147.835 257.34 134.618 254.571 122.327C253.216 116.316 250.19 110.877 248.569 105.02C246.794 98.5982 244.655 92.263 242.391 85.9856C237.859 73.418 232.793 61.0238 228.99 48.2154C226.464 39.7064 225.64 30.8121 223.435 22.2068C223.287 21.6416 222.624 14.9147 220.396 16.0225" fill="#B26734"/>
<path d="M194.939 151.688C195.182 155.358 192.6 158.511 189.168 158.729C185.736 158.948 182.759 156.161 182.513 152.478C182.267 148.795 185.027 148.259 188.459 148.04C191.891 147.822 194.693 148.024 194.939 151.688Z" fill="white"/>
<path d="M249.376 148.512C249.632 152.346 246.79 155.644 243.033 155.897C239.276 156.151 236.021 153.223 235.769 149.392C235.516 145.561 238.525 144.865 242.285 144.627C246.046 144.389 249.117 144.682 249.376 148.512Z" fill="white"/>
<path d="M205.44 182.759C206.331 182.475 206.591 180.859 206.021 179.149C205.451 177.44 204.267 176.284 203.376 176.569C202.486 176.853 202.226 178.469 202.796 180.179C203.366 181.888 204.55 183.044 205.44 182.759Z" fill="#91562D"/>
<path d="M229.701 180.136C230.271 178.426 230.011 176.81 229.12 176.525C228.229 176.241 227.045 177.396 226.475 179.106C225.905 180.815 226.165 182.432 227.056 182.716C227.947 183 229.131 181.845 229.701 180.136Z" fill="#91562D"/>
<path d="M190.624 157.432C192.014 157.432 193.141 156.33 193.141 154.969C193.141 153.609 192.014 152.507 190.624 152.507C189.234 152.507 188.107 153.609 188.107 154.969C188.107 156.33 189.234 157.432 190.624 157.432Z" fill="#232323"/>
<path d="M241.232 154.176C242.637 154.176 243.775 153.062 243.775 151.688C243.775 150.313 242.637 149.199 241.232 149.199C239.828 149.199 238.689 150.313 238.689 151.688C238.689 153.062 239.828 154.176 241.232 154.176Z" fill="#232323"/>
<path d="M260.988 120.877L254.495 121.29C253.828 121.332 253.322 121.896 253.366 122.549L255.783 158.926C255.826 159.579 256.402 160.074 257.069 160.032L263.562 159.618C264.23 159.576 264.735 159.012 264.692 158.359L262.275 121.982C262.232 121.329 261.656 120.834 260.988 120.877Z" fill="#3F3F3F"/>
<path d="M266.784 122.455L263.814 122.644L266.099 157.028L269.069 156.839L266.784 122.455Z" fill="#161616"/>
<path d="M270.907 124.621L267.924 124.811C267.381 124.845 266.97 125.303 267.005 125.834L268.905 154.422C268.94 154.953 269.408 155.355 269.951 155.321L272.934 155.131C273.476 155.096 273.887 154.638 273.852 154.107L271.953 125.52C271.918 124.989 271.449 124.586 270.907 124.621Z" fill="#161616"/>
<path d="M261.647 160.704L261.421 153.91L263.206 150.879L261.437 124.244L258.484 121.027L258.176 120.073L262.103 119.338L264.676 120.632L267.186 158.408L264.84 160.502L261.647 160.704Z" fill="#303030"/>
<path d="M265.104 118.66L266.541 122.459L268.893 157.811L267.315 160.345L271.705 159.092L269.13 120.349L265.104 118.66Z" fill="#303030"/>
<path d="M262.807 95.0405L266.19 96.4341L267.935 117.861L264.962 118.323L262.807 95.0405Z" fill="#303030"/>
<path d="M265.041 118.663L265.021 110.883L269.13 120.349L265.041 118.663Z" fill="#303030"/>
<path d="M155.542 152.386L153.891 152.491C153.39 152.523 153.011 152.947 153.043 153.437L153.408 158.925C153.441 159.416 153.873 159.787 154.374 159.755L156.024 159.65C156.525 159.618 156.905 159.195 156.872 158.705L156.508 153.216C156.475 152.726 156.043 152.355 155.542 152.386Z" fill="#303030"/>
<path d="M152.825 150.124C152.825 150.124 127.74 221.754 195.074 217.467L196.548 217.38L196.259 213.02C196.259 213.02 141.386 224.766 154.954 159.715C157.13 149.286 154.341 150.513 154.341 150.513L152.825 150.124Z" fill="#303030"/>
<path d="M167.006 165.75L173.499 165.337C174.166 165.294 174.672 164.731 174.628 164.078L172.212 127.701C172.168 127.048 171.592 126.553 170.925 126.595L164.432 127.008C163.764 127.051 163.259 127.615 163.302 128.268L165.719 164.645C165.762 165.298 166.339 165.792 167.006 165.75Z" fill="#3F3F3F"/>
<path d="M161.184 163.694L164.154 163.505L161.87 129.121L158.9 129.31L161.184 163.694Z" fill="#161616"/>
<path d="M157.123 162.49L160.106 162.301C160.648 162.266 161.059 161.808 161.024 161.277L159.125 132.689C159.089 132.158 158.621 131.756 158.078 131.79L155.096 131.98C154.553 132.015 154.142 132.473 154.177 133.004L156.076 161.592C156.112 162.122 156.58 162.525 157.123 162.49Z" fill="#161616"/>
<path d="M169.054 166.599L168.382 159.834L166.209 157.053L164.438 130.419L166.938 126.854L167.118 125.869L163.125 125.637L160.746 127.249L163.26 165.023L165.862 166.802L169.054 166.599Z" fill="#303030"/>
<path d="M160.063 125.345L159.138 129.295L161.487 164.65L163.387 166.959L158.869 166.275L156.293 127.532L160.063 125.345Z" fill="#303030"/>
<path d="M159.339 101.626L156.215 104.079L157.147 124.912L160.159 124.992L159.339 101.626Z" fill="#303030"/>
<path d="M160.122 125.342L159.115 117.626L156.293 127.532L160.122 125.342Z" fill="#303030"/>
<path d="M172.69 117.906C175.118 116.3 178.268 116.085 181.09 115.741C184.371 115.35 187.652 115.16 190.865 115.998C193.641 116.724 194.828 112.511 192.049 111.786C188.243 110.793 184.364 110.957 180.493 111.448C177.054 111.885 173.385 112.174 170.436 114.133C168.073 115.703 170.304 119.489 172.69 117.906Z" fill="#7C441E"/>
<path d="M234.56 114.409C239.886 112.257 245.794 111.912 251.344 113.429C254.113 114.187 255.281 109.975 252.528 109.217C246.209 107.47 239.477 107.816 233.379 110.199C232.253 110.642 231.489 111.651 231.82 112.884C232.102 113.924 233.461 114.852 234.567 114.409H234.56Z" fill="#7C441E"/>
<path d="M222.52 144.832C222.402 142.585 218.254 139.872 213.332 140.116C208.41 140.36 204.552 143.458 204.667 145.712C204.781 147.966 208.604 144.585 213.552 144.344C218.5 144.104 222.635 147.09 222.52 144.832Z" fill="#232323"/>
<path d="M189.593 165.813C199.217 165.34 206.475 154.405 205.806 141.391C205.137 128.377 196.794 118.211 187.17 118.685C177.547 119.159 170.288 130.093 170.958 143.107C171.627 156.121 179.97 166.287 189.593 165.813Z" fill="white"/>
<path d="M239.712 163.349C249.336 162.875 256.594 151.941 255.925 138.927C255.256 125.913 246.913 115.747 237.29 116.221C227.666 116.694 220.408 127.629 221.077 140.643C221.746 153.657 230.089 163.823 239.712 163.349Z" fill="white"/>
<path d="M177.736 125.599C175.043 129.401 173.418 131.462 171.61 131.552C169.802 131.642 168.057 128.405 167.86 124.536C167.663 120.667 179.19 120.092 181.014 120.002C182.839 119.912 178.357 124.719 177.736 125.599Z" fill="#232323"/>
<path d="M246.488 122.215C249.556 125.747 251.383 127.625 253.208 127.535C255.032 127.445 256.42 124.058 256.223 120.189C256.026 116.319 244.493 116.878 242.668 116.978C240.844 117.077 245.766 121.402 246.488 122.215Z" fill="#232323"/>
<path d="M189.086 161.78C192.348 161.78 194.992 159.192 194.992 156C194.992 152.808 192.348 150.22 189.086 150.22C185.824 150.22 183.18 152.808 183.18 156C183.18 159.192 185.824 161.78 189.086 161.78Z" fill="#232323"/>
<path d="M240.184 159.815C243.756 159.815 246.651 156.981 246.651 153.486C246.651 149.991 243.756 147.157 240.184 147.157C236.612 147.157 233.717 149.991 233.717 153.486C233.717 156.981 236.612 159.815 240.184 159.815Z" fill="#232323"/>
<path d="M190.372 160.293C191.265 160.293 191.989 159.584 191.989 158.71C191.989 157.836 191.265 157.127 190.372 157.127C189.478 157.127 188.754 157.836 188.754 158.71C188.754 159.584 189.478 160.293 190.372 160.293Z" fill="white"/>
<path d="M238.571 158.338C239.549 158.338 240.343 157.561 240.343 156.604C240.343 155.646 239.549 154.87 238.571 154.87C237.592 154.87 236.799 155.646 236.799 156.604C236.799 157.561 237.592 158.338 238.571 158.338Z" fill="white"/>
<path d="M170.196 124.401C170.758 124.207 171.143 123.854 171.057 123.613C170.97 123.373 170.444 123.335 169.881 123.529C169.319 123.723 168.934 124.076 169.021 124.316C169.107 124.557 169.634 124.595 170.196 124.401Z" fill="#FFC33E"/>
<path d="M254.999 120.246C255.112 120.015 254.767 119.624 254.229 119.373C253.691 119.121 253.164 119.104 253.052 119.334C252.939 119.564 253.284 119.955 253.822 120.207C254.359 120.459 254.887 120.476 254.999 120.246Z" fill="#FFC33E"/>
<path d="M159.798 198.962C159.798 198.962 158.049 195.161 157.872 193.915C157.829 193.619 160.021 193.51 160.021 193.51L162.751 198.436L159.798 198.962Z" fill="#824009"/>
</svg>
